<?xml version="1.0" encoding="UTF-8" standalone="no"?>
<!-- Generator: Adobe Illustrator 16.0.0, SVG Export Plug-In . SVG Version: 6.00 Build 0)  -->

<svg
   xmlns:dc="http://purl.org/dc/elements/1.1/"
   xmlns:cc="http://creativecommons.org/ns#"
   xmlns:rdf="http://www.w3.org/1999/02/22-rdf-syntax-ns#"
   xmlns:svg="http://www.w3.org/2000/svg"
   xmlns="http://www.w3.org/2000/svg"
   xmlns:sodipodi="http://sodipodi.sourceforge.net/DTD/sodipodi-0.dtd"
   xmlns:inkscape="http://www.inkscape.org/namespaces/inkscape"
   version="1.0"
   id="Layer_1"
   x="0px"
   y="0px"
   width="612px"
   height="792px"
   viewBox="0 0 612 792"
   enable-background="new 0 0 612 792"
   xml:space="preserve"
   sodipodi:docname="monogramFinal.svg"
   inkscape:version="0.92.2 5c3e80d, 2017-08-06"
   inkscape:export-filename="/Users/jaykaron/wedding/monogram.png"
   inkscape:export-xdpi="400"
   inkscape:export-ydpi="400"><metadata
     id="metadata35"><rdf:RDF><cc:Work
         rdf:about=""><dc:format>image/svg+xml</dc:format><dc:type
           rdf:resource="http://purl.org/dc/dcmitype/StillImage" /><dc:title></dc:title></cc:Work></rdf:RDF></metadata><defs
     id="defs33" /><sodipodi:namedview
     pagecolor="#ffffff"
     bordercolor="#666666"
     borderopacity="1"
     objecttolerance="10"
     gridtolerance="10"
     guidetolerance="10"
     inkscape:pageopacity="0"
     inkscape:pageshadow="2"
     inkscape:window-width="1437"
     inkscape:window-height="852"
     id="namedview31"
     showgrid="false"
     inkscape:zoom="0.70710678"
     inkscape:cx="271.9115"
     inkscape:cy="358.25295"
     inkscape:window-x="0"
     inkscape:window-y="0"
     inkscape:window-maximized="0"
     inkscape:current-layer="g22" /><g
     id="g24"><g
       id="g22"><path
         fill-rule="evenodd"
         clip-rule="evenodd"
         fill="none"
         d="M584.6,755.077c-184.784,0-369.637,0-554.506,0    c0-242.271,0-484.542,0-726.908c184.774,0,369.564,0,554.506,0C584.6,270.41,584.6,512.744,584.6,755.077z M335.32,364.318    c10.341-0.179,19.01,0.997,26.869-4.017c17.455-11.135,33.678-23.755,46.932-39.746c9.213-11.114,17.066-23.197,18.344-38.131    c1.02-11.922,1.357-23.903,2.054-35.854c0.531-9.101,0.361-18.336,1.911-27.266c2.321-13.365,6.789-26.032,14.633-37.504    c9.587-14.017,18.238-28.671,27.581-42.86c3.238-4.919,7.508-9.147,10.995-13.918c3.745-5.125,3.954-10.05,0.661-13.77    c-3.553-4.015-8.21-2.806-12.497-1.721c-7.909,2.001-15.605,5.32-23.613,6.327c-11.438,1.44-23.068,1.576-34.625,1.758    c-15.567,0.245-31.159-0.406-46.7,0.259c-3.936,0.168-9.473,2.897-11.255,6.12c-6.202,11.215-13.063,22.435-12.141,36.259    c0.562,8.427,2.749,10.869,11.159,10.154c2.119-0.181,4.176-1.026,6.297-1.284c13.132-1.592,26.251-3.374,39.425-4.521    c6.11-0.533,10.821,2.805,12.964,8.607c1.336,3.617,2.553,7.648,2.336,11.41c-1.911,33.23-10.119,64.499-30.54,91.527    c-4.593,6.08-9.474,12.564-15.667,16.697c-18.236,12.17-38.418,17.487-60.15,11.227c-11.275-3.248-22.167-7.85-33.181-11.976    c-4.968-1.862-7.051-0.911-7.737,4.313c-0.301,2.292-0.355,4.702-0.007,6.98c1.5,9.846,3.5,19.624,4.737,29.5    c1.595,12.732,7.936,21.119,20.477,24.544C308.518,361.237,322.368,365.567,335.32,364.318z M321.001,510.601    c17.503,10.628,35.184,14.956,53.798,7.027c13.54-5.768,23.476-16.151,29.835-29.53c3.604-7.582,6.73-15.402,9.812-23.217    c0.711-1.801,1.212-4.791,0.266-5.84c-1.032-1.144-3.907-1.063-5.897-0.824c-12.769,1.527-25.475,3.793-38.281,4.749    c-13.792,1.029-25.263,6.023-34.266,16.474c-1.106,1.285-1.453,3.225-2.152,4.861c-0.888-0.689-1.775-1.38-2.663-2.069    c1.286-6.189,2.632-12.366,3.847-18.569c3.493-17.842,5.74-35.898-0.81-53.337c-4.044-10.769-9.816-20.979-15.724-30.897    c-1.651-2.772-7.949-5.928-9.657-4.884c-3.985,2.435-0.438,6.953,0.474,10.537c2.667,10.479,6.454,20.771,8.063,31.401    c3.181,21.026,1.62,42.249-3.111,62.79c-4.634,20.12-12.225,39.539-17.529,59.528c-5.233,19.716-9.534,39.697-13.67,59.68    c-3.367,16.271-2.976,32.638,0.79,48.909c3.768,16.284,12.306,29.894,23.486,41.912c3.609,3.881,8.196,6.916,12.606,9.945    c1.118,0.767,3.342,0.263,4.897-0.199c0.366-0.108,0.478-2.573,0.027-3.676c-1.877-4.592-3.521-9.388-6.146-13.543    c-7.793-12.336-13.56-25.824-13.987-40.093c-0.653-21.794-0.326-43.853,2.379-65.448    C310.144,554.277,316.278,532.689,321.001,510.601z M303.443,213.315c0.188-0.005,0.377-0.011,0.566-0.016    c-0.39-7.153,0.098-14.491-1.361-21.419c-2.701-12.831-5.963-25.615-10.08-38.057c-3.697-11.175-7.901-22.349-16.103-31.355    c-3.261-3.581-6.78-6.203-11.998-5.948c-20.504,1.003-39.905-4.062-59.197-10.356c-6.115-1.995-12.941-2.31-19.45-2.361    c-2.664-0.021-6.694,2.077-7.72,4.305c-1.666,3.623-0.33,7.672,3.625,10.192c7.152,4.558,13.974,9.519,17.956,17.36    c2.795,5.503,5.752,10.942,8.202,16.598c6.884,15.889,17.042,27.677,35.337,30.352c7.085,1.036,14.043,2.93,21.075,4.355    c12.21,2.474,20.489,9.309,23.183,21.709c1.847,8.502,2.764,17.206,4.55,25.725c0.459,2.192,2.634,4.023,4.021,6.02    c2.168-1.536,4.673-2.776,6.375-4.718c1-1.142,0.944-3.396,0.977-5.157C303.511,224.801,303.443,219.058,303.443,213.315z     M315.208,191.199c0.494,5.508,0.511,11.109,1.569,16.506c3.62,18.455,8.063,22.534,22.903,25.61    c5.077,1.052,9.979,2.924,15.042,4.065c7.172,1.618,9.883,6.586,10.358,13.218c0.5,6.967,0.604,13.961,1.126,20.926    c0.115,1.53,1.264,2.982,1.936,4.471c1.443-0.884,3.191-1.5,4.254-2.718c1.387-1.59,2.365-3.592,3.288-5.526    c6.019-12.6,11.395-25.549,18.136-37.747c5.318-9.626,6.212-19.586,5.459-29.941c-0.889-12.207-7.531-17.597-19.84-15.241    c-16.366,3.131-32.324,2.473-47.061-5.057C319.211,173.035,314.352,176.06,315.208,191.199z M265.724,225.892    c0.045-5.737-2.201-10.027-6.427-13.368c-7.764-6.139-17.385-6.859-26.563-8.678c-1.896-0.377-5.756,0.701-5.909,1.591    c-0.424,2.463,0.301,5.298,1.167,7.777c2.083,5.955,6.007,11.672,6.495,17.702c1.165,14.4,0.208,28.773-3.606,42.996    c-2.17,8.093-3.257,16.851-2.78,25.193c0.764,13.365,9.878,23.062,17.715,33.028c2.044,2.6,4.718,5.154,7.665,6.456    c2.474,1.092,5.917,0.847,8.604,0.069c0.792-0.229,1.026-4.415,0.535-6.563c-0.708-3.102-2.126-6.092-3.563-8.968    c-5.169-10.349-7.053-21.342-7.124-32.811c-0.096-15.714,5.167-30.304,9.055-45.196    C262.657,238.733,264.151,232.303,265.724,225.892z M388.735,106.559c-0.135-0.634-0.268-1.269-0.401-1.901    c-1.747,0-3.54-0.263-5.232,0.041c-14.478,2.596-28.9,3.635-43.709,2.33c-13.879-1.223-27.854-1.16-41.227-5.671    c-2.618-0.882-4.943-2.635-7.403-3.985c2.444-1.926,4.88-3.863,7.347-5.758c0.249-0.19,0.708-0.083,1.047-0.185    c26.423-7.924,53.151-6.13,79.919-2.421c1.89,0.262,3.652,1.44,6.331,2.544c-8.343,5.391-16.282,6.212-24.659,5.026    c-4.272-0.604-8.579-0.972-12.87-1.447c-0.127,0.734-0.255,1.468-0.382,2.203c1.328,0.557,2.645,1.564,3.987,1.599    c8.417,0.219,16.856,0.544,25.253,0.132c3.235-0.158,6.581-1.8,9.487-3.453c1.564-0.889,3.05-3.178,3.164-4.927    c0.081-1.24-1.953-3.181-3.467-3.841c-2.891-1.262-6.059-2.466-9.152-2.585c-15.406-0.59-30.856-1.576-46.229-0.935    c-12.401,0.518-24.778,2.798-37.035,5.021c-4.785,0.869-10.241,3.32-10.042,9.449c0.205,6.322,6.14,6.958,10.748,7.705    c29.129,4.715,58.37,7.194,87.81,3C384.304,108.172,386.498,107.219,388.735,106.559z M380.18,72.806    c0.175-0.683,0.35-1.366,0.525-2.049c-1.81-0.874-3.564-2.354-5.438-2.524c-14.248-1.297-28.501-2.923-42.784-3.328    c-24.389-0.693-48.574,2.011-72.519,6.59c-15.371,2.939-30.808,5.731-45.938,9.66c-8.706,2.26-16.98,6.391-25.193,10.227    c-3.082,1.439-6.924,3.57-4.891,9.62c3.518-2.869,6.474-5.545,9.691-7.857c11.91-8.555,26.197-10.673,39.956-13.171    c24.124-4.38,48.44-8.179,72.842-10.388c16.322-1.477,32.941-0.029,49.409,0.595C363.975,70.487,372.068,71.896,380.18,72.806z     M413.845,75.081c10.903,3.753,22.146,6.75,32.611,11.471c10.395,4.688,20.008,11.111,30.837,17.268    C472.933,93.311,425.172,71.589,413.845,75.081z"
         id="path2" /><path
         d="m 335.32,364.318 c -12.74225,-0.21822 -26.803,-3.081 -40.74,-6.887 -12.541,-3.425 -18.882,-11.812 -20.477,-24.544 -1.236,-9.876 -3.236,-19.654 -4.737,-29.5 -0.348,-2.278 -0.293,-4.688 0.007,-6.98 0.686,-5.225 2.769,-6.175 7.737,-4.313 11.014,4.126 21.906,8.728 33.181,11.976 21.732,6.26 41.914,0.943 60.15,-11.227 6.193,-4.133 11.074,-10.618 15.667,-16.697 20.421,-27.028 28.629,-58.296 30.54,-91.527 0.217,-3.761 -1,-7.793 -2.336,-11.41 -2.143,-5.802 -6.854,-9.14 -12.964,-8.607 -13.174,1.147 -26.293,2.929 -39.425,4.521 -2.121,0.258 -4.178,1.104 -6.297,1.284 -8.41,0.715 -10.598,-1.727 -11.159,-10.154 -0.922,-13.824 5.938,-25.043 12.141,-36.259 1.782,-3.223 7.319,-5.952 11.255,-6.12 15.541,-0.665 31.133,-0.014 46.7,-0.259 11.557,-0.182 23.188,-0.318 34.625,-1.758 8.008,-1.007 15.704,-4.326 23.613,-6.327 4.287,-1.085 8.944,-2.294 12.497,1.721 3.293,3.72 3.084,8.646 -0.661,13.77 -3.487,4.771 -7.757,8.999 -10.995,13.918 -9.343,14.189 -17.994,28.843 -27.581,42.86 -7.844,11.472 -12.312,24.139 -14.633,37.504 -1.55,8.93 -1.38,18.165 -1.911,27.266 -0.696,11.952 -1.034,23.933 -2.054,35.854 -3.67104,19.01173 -23.21225,50.49748 -36.20065,61.91001 C 372.52986,357.67484 356.02931,364.0422 335.32,364.318 Z"
         id="path4"
         inkscape:connector-curvature="0"
         style="clip-rule:evenodd;fill-rule:evenodd"
         sodipodi:nodetypes="cccccccccccccccccccccsccccccc" /><path
         d="m 321.001,510.601 c -6.44825,38.29949 -21.94345,86.73387 -21.33226,117.49024 -1.05612,19.60825 11.53326,41.40176 19.32626,53.73776 2.625,4.155 4.269,8.951 6.146,13.543 0.30169,2.14119 0.20604,3.22667 -0.10116,3.45353 -1.63008,1.20381 -3.70484,1.18847 -4.82284,0.42147 -4.41,-3.029 -8.997,-6.064 -12.606,-9.945 -11.18,-12.019 -19.718,-25.628 -23.486,-41.912 -3.766,-16.271 -4.157,-32.639 -0.79,-48.909 4.136,-19.982 8.437,-39.964 13.67,-59.68 5.305,-19.989 12.896,-39.408 17.529,-59.528 4.731,-20.541 6.292,-41.764 3.111,-62.79 -1.608,-10.63 -5.396,-20.922 -8.063,-31.401 -0.912,-3.583 -4.459,-8.102 -0.474,-10.537 1.708,-1.043 8.006,2.112 9.657,4.884 5.907,9.918 11.68,20.129 15.724,30.897 6.55,17.438 4.303,35.495 0.81,53.337 -1.215,6.203 -3.15425,14.15975 -4.44025,20.34875 0,0 3.31849,-2.03572 5.40825,-4.57175 9.003,-10.45 20.474,-15.444 34.266,-16.474 12.807,-0.956 25.513,-3.222 38.281,-4.749 1.99,-0.238 4.865,-0.319 5.897,0.824 0.946,1.049 0.445,4.039 -0.266,5.84 -3.081,7.814 -6.207,15.635 -9.812,23.217 -6.359,13.379 -16.295,23.763 -29.835,29.53 -18.613,7.929 -36.294,3.601 -53.797,-7.027 z m 29.22548,-12.57566 c 21.02948,-5.05477 38.83323,-10.59052 49.96237,-23.29514 0.51239,-0.58492 1.71922,-1.38627 1.41263,-2.23295 -1.37212,-0.83198 -5.01822,1.47686 -6.09922,2.13286 -15.51072,10.94579 -35.51606,19.11284 -59.67357,22.97793 -0.84216,0.13475 -3.70785,1.33911 -3.45221,2.17698 0.2814,0.92228 1.23002,1.06992 4.14184,0.88126 4.40717,-0.28556 10.50748,-1.8359 13.70816,-2.64094 z"
         id="path6"
         inkscape:connector-curvature="0"
         style="clip-rule:evenodd;fill-rule:evenodd"
         sodipodi:nodetypes="ccccsccccccccccccccccccccccsccsssc" /><path
         d="m 302.77276,231.59073 c -0.70629,6.41886 -14.61136,15.42365 -18.29695,15.11864 -1.33032,-1.12576 -0.70077,-3.32461 -0.37515,-5.201 1.94419,-11.20338 4.97387,-24.7926 3.37834,-32.83637 -2.694,-12.4 -10.972,-19.235 -23.183,-21.709 -7.032,-1.425 -13.99,-3.32 -21.075,-4.355 -18.294,-2.675 -28.453,-14.463 -35.337,-30.352 -2.45,-5.656 -5.407,-11.095 -8.202,-16.598 -3.982,-7.841 -10.804,-12.802 -17.956,-17.36 -3.955,-2.52 -5.291,-6.569 -3.625,-10.192 1.025,-2.229 5.056,-4.326 7.72,-4.305 6.509,0.052 13.335,0.366 19.45,2.361 19.292,6.294 38.692,11.359 59.197,10.356 5.218,-0.254 8.737,2.368 11.998,5.948 8.202,9.006 12.406,20.18 16.103,31.355 4.117,12.442 7.378,25.226 10.08,38.057 1.98998,13.49307 1.60596,26.24235 0.12376,39.71273 z"
         id="path8"
         inkscape:connector-curvature="0"
         style="clip-rule:evenodd;fill-rule:evenodd"
         sodipodi:nodetypes="scscccccccccccccs" /><path
         d="m 315.208,191.199 c -0.856,-15.139 4.003,-18.164 17.171,-11.435 14.736,7.53 30.694,8.188 47.061,5.057 12.309,-2.356 18.951,3.034 19.84,15.241 0.753,10.355 -0.141,20.315 -5.459,29.941 -6.741,12.198 -12.117,25.147 -18.136,37.747 -0.923,1.934 -1.901,3.936 -3.288,5.526 -1.063,1.217 -2.6261,3.18212 -4.254,2.718 -1.57014,-0.44766 -1.82,-2.94 -1.936,-4.471 -0.522,-6.964 -0.626,-13.958 -1.126,-20.926 -0.476,-6.631 -3.187,-11.6 -10.358,-13.218 -5.063,-1.141 -9.965,-3.014 -15.042,-4.065 -14.841,-3.076 -19.283,-7.155 -22.903,-25.61 -1.059,-5.396 -1.076,-10.997 -1.57,-16.505 z"
         id="path10"
         inkscape:connector-curvature="0"
         style="clip-rule:evenodd;fill-rule:evenodd"
         sodipodi:nodetypes="cccccccscccccc" /><path
         d="m 265.724,225.892 c -1.573,6.411 -3.067,12.841 -4.735,19.227 -3.888,14.892 -9.151,29.482 -9.055,45.196 0.07,11.469 1.954,22.462 7.124,32.811 1.437,2.876 2.855,5.867 3.563,8.968 0.491,2.149 0.25607,6.33425 -0.535,6.563 -2.68793,0.77725 -6.13,1.022 -8.604,-0.069 -2.947,-1.302 -5.621,-3.856 -7.665,-6.456 -7.837,-9.967 -16.951,-19.663 -17.715,-33.028 -0.477,-8.342 0.61,-17.1 2.78,-25.193 3.814,-14.223 4.771,-28.596 3.606,-42.996 -0.488,-6.03 -4.412,-11.747 -6.495,-17.702 -0.867,-2.479 -1.592,-5.313 -1.167,-7.777 0.153,-0.89 4.013,-1.968 5.909,-1.591 9.178,1.819 18.799,2.539 26.563,8.678 4.225,3.342 6.472,7.632 6.426,13.369 z"
         id="path12"
         inkscape:connector-curvature="0"
         style="clip-rule:evenodd;fill-rule:evenodd"
         sodipodi:nodetypes="cccccscccccccccc" /><path
         d="m 388.735,106.559 c -2.237,0.661 -4.432,1.614 -6.717,1.938 -29.439,4.194 -58.681,1.714 -87.81,-3 -4.608,-0.747 -10.543,-1.382 -10.748,-7.705 -0.198,-6.129 5.257,-8.581 10.042,-9.449 12.257,-2.224 24.633,-4.504 37.035,-5.021 15.373,-0.641 30.823,0.345 46.229,0.935 3.094,0.119 6.262,1.323 9.152,2.585 1.514,0.661 3.548,2.601 3.467,3.841 -0.114,1.749 -1.6,4.039 -3.164,4.927 -2.906,1.653 -5.0984,3.295 -9.487,3.453 -8.396,0.412 -16.836,0.086 -25.253,-0.132 -2.87394,-0.330715 -4.17781,-2.11967 -5.28297,-4.011746 13.49851,2.174459 52.7907,-1.58502 31.198,-6.123 -16.304,-2.25849 -31.97067,-2.890489 -47.69843,-1.904893 -10.09415,0.63256 -20.21347,1.438035 -30.5426,4.535639 -0.339,0.102 -1.047,0.185 -1.047,0.185 -2.467,1.896 -8.74461,1.505112 -7.347,5.758 0.87621,2.66628 4.785,3.103 7.403,3.985 13.374,4.511 27.348,4.448 41.227,5.671 14.809,1.305 29.231,0.266 43.709,-2.33 1.692,-0.304 3.485,-0.041 5.232,-0.041 0.136,0.635 0.269,1.269 0.403,1.904 z"
         id="path14"
         inkscape:connector-curvature="0"
         style="clip-rule:evenodd;fill-rule:evenodd"
         sodipodi:nodetypes="ccccccccccccccsccsccccc" /><path
         d="m 380.18,72.806 c -8.111,-0.91 -16.205,-2.318 -24.34,-2.626 -16.468,-0.625 -32.79037,-0.588873 -49.11237,0.888127 -24.401,2.209 -47.49551,5.342775 -71.61951,10.510866 -13.759,2.635772 -23.36143,4.283388 -37.05118,9.278884 -4.26673,1.263271 -12.67949,6.286827 -17.68062,9.304143 3.74683,-5.89115 8.70954,-8.539062 11.79154,-9.978062 8.213,-3.836 13.15314,-6.768958 21.85814,-9.029958 15.129,-3.929 30.567,-6.72 45.938,-9.66 23.945,-4.579 48.13,-7.283 72.519,-6.59 14.283,0.405 28.536,2.031 42.784,3.328 1.874,0.17 3.629,1.65 5.438,2.524 -0.176,0.683 -0.351,1.367 -0.525,2.05 z"
         id="path16"
         inkscape:connector-curvature="0"
         style="clip-rule:evenodd;fill-rule:evenodd"
         sodipodi:nodetypes="ccccccccccccc" /><path
         d="m 413.845,75.081 c 16.15115,-3.911492 59.088,18.23 63.448,28.739 -4.68986,-2.66649 -10.85327,-5.585725 -15.66888,-8.652183 -6.45266,-4.108896 -11.75396,-7.045634 -16.63634,-8.930436 -5.58547,-2.911708 -12.731,-5.108103 -18.66916,-6.460744 -4.93946,-1.125148 -8.22333,-1.8068 -12.47362,-4.695637 z"
         id="path18"
         inkscape:connector-curvature="0"
         style="clip-rule:evenodd;fill-rule:evenodd"
         sodipodi:nodetypes="ccscsc" /><path
         fill-rule="evenodd"
         clip-rule="evenodd"
         fill="none"
         d="M330.302,506.513c-0.613-0.372-2.122-1.291-3.63-2.209    c1.479-0.825,2.867-2.024,4.454-2.419c21.264-5.289,40.415-14.828,57.652-28.304c2.935-2.294,5.869-4.63,9.041-6.556    c1.081-0.656,2.89-0.114,4.366-0.121c-0.157,1.324,0.039,2.846-0.558,3.927c-0.844,1.524-2.056,3.049-3.487,4.016    c-16.988,11.475-33.647,23.593-54.156,28.387c-3.112,0.727-6.095,1.992-9.173,2.887    C333.801,506.414,332.68,506.323,330.302,506.513z"
         id="path20" /></g></g></svg>